<svg width="30" height="30" viewBox="0 0 30 30" fill="none" xmlns="http://www.w3.org/2000/svg">
<path d="M14.9999 0.333374C12.0991 0.333374 9.26348 1.19356 6.85156 2.80515C4.43964 4.41675 2.55978 6.70737 1.44969 9.38735C0.339607 12.0673 0.0491579 15.0163 0.615074 17.8614C1.18099 20.7064 2.57786 23.3198 4.62903 25.3709C6.6802 27.4221 9.29355 28.819 12.1386 29.3849C14.9837 29.9508 17.9326 29.6604 20.6126 28.5503C23.2926 27.4402 25.5832 25.5603 27.1948 23.1484C28.8064 20.7365 29.6666 17.9008 29.6666 15C29.6666 11.1102 28.1214 7.37967 25.3708 4.62914C22.6203 1.87861 18.8898 0.333374 14.9999 0.333374ZM14.9999 27C12.6265 27 10.3065 26.2963 8.33308 24.9777C6.35969 23.6591 4.82162 21.785 3.91337 19.5922C3.00512 17.3995 2.76748 14.9867 3.2305 12.659C3.69352 10.3312 4.83641 8.19299 6.51464 6.51476C8.19287 4.83653 10.3311 3.69364 12.6588 3.23062C14.9866 2.76759 17.3994 3.00523 19.5921 3.91349C21.7848 4.82174 23.659 6.35981 24.9776 8.3332C26.2961 10.3066 26.9999 12.6267 26.9999 15C26.9999 18.1826 25.7356 21.2349 23.4852 23.4853C21.2348 25.7358 18.1825 27 14.9999 27ZM18.7733 7.60004L14.9999 13.2667L11.2266 7.60004C11.1297 7.45347 11.0048 7.32749 10.8591 7.22934C10.7134 7.13119 10.5498 7.0628 10.3775 7.02811C10.2053 6.99342 10.0279 6.9931 9.85558 7.02718C9.68323 7.06127 9.51932 7.12907 9.37326 7.22671C9.08098 7.4222 8.87775 7.72524 8.80783 8.06986C8.73791 8.41447 8.80695 8.77275 8.99993 9.06671L11.8133 13.2934H10.9999C10.6463 13.2934 10.3072 13.4338 10.0571 13.6839C9.80707 13.9339 9.66659 14.2731 9.66659 14.6267C9.66659 14.9803 9.80707 15.3195 10.0571 15.5695C10.3072 15.8196 10.6463 15.96 10.9999 15.96H13.6666L13.7333 16.0667V17.2934H10.9999C10.6463 17.2934 10.3072 17.4338 10.0571 17.6839C9.80707 17.9339 9.66659 18.2731 9.66659 18.6267C9.66659 18.9803 9.80707 19.3195 10.0571 19.5695C10.3072 19.8196 10.6463 19.96 10.9999 19.96H13.6666V23C13.6666 23.3537 13.8071 23.6928 14.0571 23.9429C14.3072 24.1929 14.6463 24.3334 14.9999 24.3334C15.3535 24.3334 15.6927 24.1929 15.9427 23.9429C16.1928 23.6928 16.3333 23.3537 16.3333 23V19.96H18.9999C19.3535 19.96 19.6927 19.8196 19.9427 19.5695C20.1928 19.3195 20.3333 18.9803 20.3333 18.6267C20.3333 18.2731 20.1928 17.9339 19.9427 17.6839C19.6927 17.4338 19.3535 17.2934 18.9999 17.2934H16.3333V16.0667L16.3999 15.96H18.9999C19.3535 15.96 19.6927 15.8196 19.9427 15.5695C20.1928 15.3195 20.3333 14.9803 20.3333 14.6267C20.3333 14.2731 20.1928 13.9339 19.9427 13.6839C19.6927 13.4338 19.3535 13.2934 18.9999 13.2934H18.1866L20.9999 9.06671C21.1929 8.77275 21.2619 8.41447 21.192 8.06986C21.1221 7.72524 20.9189 7.4222 20.6266 7.22671C20.4805 7.12907 20.3166 7.06127 20.1443 7.02718C19.9719 6.9931 19.7945 6.99342 19.6223 7.02811C19.4501 7.0628 19.2864 7.13119 19.1407 7.22934C18.995 7.32749 18.8701 7.45347 18.7733 7.60004Z" fill="#5B5B5B"/>
</svg>
