<svg width="22" height="28" viewBox="0 0 22 28" fill="none" xmlns="http://www.w3.org/2000/svg">
<path d="M6.99992 11.3334H8.33325C8.68687 11.3334 9.02601 11.1929 9.27606 10.9429C9.52611 10.6928 9.66658 10.3537 9.66658 10.0001C9.66658 9.64646 9.52611 9.30732 9.27606 9.05727C9.02601 8.80722 8.68687 8.66675 8.33325 8.66675H6.99992C6.6463 8.66675 6.30716 8.80722 6.05711 9.05727C5.80706 9.30732 5.66658 9.64646 5.66658 10.0001C5.66658 10.3537 5.80706 10.6928 6.05711 10.9429C6.30716 11.1929 6.6463 11.3334 6.99992 11.3334ZM6.99992 14.0001C6.6463 14.0001 6.30716 14.1406 6.05711 14.3906C5.80706 14.6407 5.66658 14.9798 5.66658 15.3334C5.66658 15.687 5.80706 16.0262 6.05711 16.2762C6.30716 16.5263 6.6463 16.6667 6.99992 16.6667H14.9999C15.3535 16.6667 15.6927 16.5263 15.9427 16.2762C16.1928 16.0262 16.3333 15.687 16.3333 15.3334C16.3333 14.9798 16.1928 14.6407 15.9427 14.3906C15.6927 14.1406 15.3535 14.0001 14.9999 14.0001H6.99992ZM21.6666 9.92008C21.6527 9.79759 21.6259 9.67692 21.5866 9.56008V9.44008C21.5225 9.30299 21.437 9.17697 21.3333 9.06675L13.3333 1.06675C13.223 0.963036 13.097 0.877523 12.9599 0.813415C12.9201 0.807761 12.8797 0.807761 12.8399 0.813415C12.7045 0.735736 12.5549 0.685874 12.3999 0.666748H4.33325C3.27239 0.666748 2.25497 1.08818 1.50482 1.83832C0.754679 2.58847 0.333252 3.60588 0.333252 4.66675V23.3334C0.333252 24.3943 0.754679 25.4117 1.50482 26.1618C2.25497 26.912 3.27239 27.3334 4.33325 27.3334H17.6666C18.7274 27.3334 19.7449 26.912 20.495 26.1618C21.2452 25.4117 21.6666 24.3943 21.6666 23.3334V10.0001C21.6666 10.0001 21.6666 10.0001 21.6666 9.92008ZM13.6666 5.21341L17.1199 8.66675H14.9999C14.6463 8.66675 14.3072 8.52627 14.0571 8.27622C13.8071 8.02618 13.6666 7.68704 13.6666 7.33342V5.21341ZM18.9999 23.3334C18.9999 23.687 18.8594 24.0262 18.6094 24.2762C18.3593 24.5263 18.0202 24.6667 17.6666 24.6667H4.33325C3.97963 24.6667 3.64049 24.5263 3.39044 24.2762C3.14039 24.0262 2.99992 23.687 2.99992 23.3334V4.66675C2.99992 4.31313 3.14039 3.97399 3.39044 3.72394C3.64049 3.47389 3.97963 3.33341 4.33325 3.33341H10.9999V7.33342C10.9999 8.39428 11.4213 9.4117 12.1715 10.1618C12.9216 10.912 13.9391 11.3334 14.9999 11.3334H18.9999V23.3334ZM14.9999 19.3334H6.99992C6.6463 19.3334 6.30716 19.4739 6.05711 19.7239C5.80706 19.974 5.66658 20.3131 5.66658 20.6667C5.66658 21.0204 5.80706 21.3595 6.05711 21.6096C6.30716 21.8596 6.6463 22.0001 6.99992 22.0001H14.9999C15.3535 22.0001 15.6927 21.8596 15.9427 21.6096C16.1928 21.3595 16.3333 21.0204 16.3333 20.6667C16.3333 20.3131 16.1928 19.974 15.9427 19.7239C15.6927 19.4739 15.3535 19.3334 14.9999 19.3334Z" fill="#5B5B5B"/>
</svg>
