<svg width="24" height="28" viewBox="0 0 24 28" fill="none" xmlns="http://www.w3.org/2000/svg">
    <path fill-rule="evenodd" clip-rule="evenodd" d="M0 2.52638C0 1.1311 1.1311 0 2.52638 0H15.1583C15.8559 0 16.4214 0.565548 16.4214 1.26319C16.4214 1.96083 15.8559 2.52638 15.1583 2.52638H2.52638V25.2638H20.211V11.3716C20.211 10.674 20.7766 10.1084 21.4742 10.1084C22.1718 10.1084 22.7374 10.674 22.7374 11.3716V25.2638C22.7374 26.6591 21.6063 27.7901 20.211 27.7901H2.52638C1.13111 27.7901 0 26.6591 0 25.2638V2.52638ZM23.63 1.63366C24.1233 2.12697 24.1233 2.92677 23.63 3.42008L16.0542 10.9959C15.5609 11.4892 14.7611 11.4892 14.2678 10.9959C13.7745 10.5026 13.7745 9.70283 14.2678 9.20952L21.8436 1.63367C22.3369 1.14036 23.1367 1.14036 23.63 1.63366ZM3.78956 10.1055C3.78956 9.40786 4.35511 8.84231 5.05275 8.84231H10.1055C10.8031 8.84231 11.3687 9.40786 11.3687 10.1055C11.3687 10.8031 10.8031 11.3687 10.1055 11.3687H5.05275C4.35511 11.3687 3.78956 10.8031 3.78956 10.1055ZM3.78956 16.4214C3.78956 15.7238 4.35511 15.1583 5.05275 15.1583H12.6319C13.3295 15.1583 13.8951 15.7238 13.8951 16.4214C13.8951 17.1191 13.3295 17.6846 12.6319 17.6846H5.05275C4.35511 17.6846 3.78956 17.1191 3.78956 16.4214Z" fill="#5B5B5B" />
</svg>
