<svg width="32" height="35" viewBox="0 0 32 35" fill="none" xmlns="http://www.w3.org/2000/svg">
<path d="M10.2471 30.7996C11.2333 33.0173 13.4202 34.5812 16.0012 34.5812C18.5823 34.5812 20.7691 33.0173 21.7555 30.7996C19.9355 30.8886 18.0428 30.9485 16.0012 30.9485C13.9597 30.9485 12.0671 30.8885 10.2471 30.7996Z" fill="#F4A0C6"/>
<path d="M30.5915 22.7367C28.8011 20.5926 25.7965 16.3781 25.7965 12.2552C25.7965 8.16715 23.0309 4.48926 19.0047 3.13732C18.9558 1.39837 17.4507 0 15.6101 0C13.7681 0 12.2644 1.39837 12.2155 3.13732C8.18794 4.48926 5.42233 8.16715 5.42233 12.2552C5.42233 16.3795 2.419 20.5926 0.627323 22.7367C0.0296547 23.4526 -0.155131 24.3982 0.134252 25.2664C0.416802 26.1139 1.12039 26.7706 2.01693 27.0208C3.58721 27.4608 6.16127 27.9561 10.087 28.2089C11.7863 28.3173 13.6133 28.3805 15.6101 28.3805C17.6056 28.3805 19.4326 28.3173 21.1319 28.2089C25.0589 27.9561 27.6317 27.4608 29.2033 27.0208C30.0998 26.7706 30.8021 26.114 31.0846 25.2664C31.374 24.3982 31.1878 23.4526 30.5915 22.7367Z" fill="#F4A0C6"/>
</svg>
