<svg width="32" height="32" viewBox="0 0 32 32" fill="none" xmlns="http://www.w3.org/2000/svg">
<path d="M19.44 15.0667C20.046 14.3093 20.3794 13.37 20.3867 12.4001C20.3867 11.2367 19.9245 10.1209 19.1018 9.29824C18.2792 8.47558 17.1634 8.01342 16 8.01342C14.8366 8.01342 13.7208 8.47558 12.8982 9.29824C12.0755 10.1209 11.6133 11.2367 11.6133 12.4001C11.6206 13.37 11.954 14.3093 12.56 15.0667C11.3715 15.79 10.4391 16.867 9.89333 18.1467C9.81695 18.3091 9.77413 18.4852 9.76744 18.6646C9.76075 18.8439 9.79032 19.0227 9.85438 19.1903C9.91845 19.3579 10.0157 19.5109 10.1403 19.64C10.2649 19.7692 10.4142 19.8718 10.5795 19.9419C10.7447 20.0119 10.9223 20.0479 11.1018 20.0476C11.2812 20.0474 11.4587 20.0109 11.6238 19.9404C11.7888 19.8699 11.9378 19.7668 12.0621 19.6373C12.1863 19.5078 12.2831 19.3545 12.3467 19.1867C12.6531 18.4704 13.1621 17.8592 13.8111 17.4281C14.4601 16.997 15.2209 16.7648 16 16.7601C16.7814 16.7622 17.5451 16.9932 18.1967 17.4244C18.8483 17.8557 19.3593 18.4683 19.6667 19.1867C19.7687 19.4277 19.9395 19.6334 20.1576 19.778C20.3757 19.9226 20.6316 19.9999 20.8933 20.0001C21.0717 19.9968 21.248 19.9606 21.4133 19.8934C21.7385 19.7553 21.9955 19.4938 22.128 19.1663C22.2605 18.8388 22.2576 18.4721 22.12 18.1467C21.5708 16.8651 20.6335 15.7879 19.44 15.0667ZM16 14.0934C15.6593 14.0934 15.3262 13.9922 15.043 13.8026C14.7599 13.613 14.5395 13.3436 14.4097 13.0285C14.2799 12.7134 14.2466 12.3669 14.3141 12.0329C14.3815 11.6989 14.5467 11.3925 14.7886 11.1525C15.0305 10.9125 15.3382 10.7497 15.6727 10.6849C16.0072 10.62 16.3535 10.656 16.6675 10.7882C16.9816 10.9204 17.2492 11.143 17.4366 11.4276C17.624 11.7122 17.7226 12.046 17.72 12.3867C17.7165 12.8406 17.5337 13.2747 17.2115 13.5944C16.8894 13.914 16.4539 14.0934 16 14.0934ZM24 2.66675H8C6.93913 2.66675 5.92172 3.08818 5.17157 3.83832C4.42143 4.58847 4 5.60588 4 6.66675V21.3334C4 22.3943 4.42143 23.4117 5.17157 24.1618C5.92172 24.912 6.93913 25.3334 8 25.3334H11.4533L15.0533 28.9467C15.1779 29.0703 15.3257 29.1681 15.4881 29.2344C15.6506 29.3008 15.8245 29.3344 16 29.3334C16.3178 29.3334 16.6251 29.22 16.8667 29.0134L21.16 25.3334H24C25.0609 25.3334 26.0783 24.912 26.8284 24.1618C27.5786 23.4117 28 22.3943 28 21.3334V6.66675C28 5.60588 27.5786 4.58847 26.8284 3.83832C26.0783 3.08818 25.0609 2.66675 24 2.66675ZM25.3333 21.3334C25.3333 21.687 25.1929 22.0262 24.9428 22.2762C24.6928 22.5263 24.3536 22.6667 24 22.6667H20.6667C20.3489 22.6667 20.0415 22.7802 19.8 22.9867L16.0667 26.1867L12.9467 23.0534C12.8221 22.9298 12.6743 22.8321 12.5119 22.7657C12.3494 22.6994 12.1755 22.6657 12 22.6667H8C7.64638 22.6667 7.30724 22.5263 7.05719 22.2762C6.80714 22.0262 6.66667 21.687 6.66667 21.3334V6.66675C6.66667 6.31313 6.80714 5.97399 7.05719 5.72394C7.30724 5.47389 7.64638 5.33341 8 5.33341H24C24.3536 5.33341 24.6928 5.47389 24.9428 5.72394C25.1929 5.97399 25.3333 6.31313 25.3333 6.66675V21.3334Z" fill="#5B5B5B"/>
</svg>
