<svg width="32" height="32" viewBox="0 0 32 32" fill="none" xmlns="http://www.w3.org/2000/svg">
<path d="M19.7467 16.3734C20.5907 15.4671 21.0662 14.2784 21.0801 13.0401C21.0801 11.7034 20.5491 10.4214 19.6039 9.47626C18.6587 8.53108 17.3768 8.00008 16.0401 8.00008C14.7034 8.00008 13.4214 8.53108 12.4763 9.47626C11.5311 10.4214 11.0001 11.7034 11.0001 13.0401C11.014 14.2784 11.4894 15.4671 12.3334 16.3734C11.1583 16.9586 10.147 17.8267 9.39064 18.8996C8.63423 19.9725 8.15638 21.2167 8.00008 22.5201C7.96118 22.8737 8.06435 23.2283 8.2869 23.5058C8.50944 23.7834 8.83313 23.9612 9.18675 24.0001C9.54037 24.039 9.89496 23.9358 10.1725 23.7133C10.4501 23.4907 10.6279 23.167 10.6667 22.8134C10.8259 21.5216 11.4519 20.3326 12.4269 19.4703C13.4019 18.608 14.6585 18.1321 15.9601 18.1321C17.2617 18.1321 18.5183 18.608 19.4933 19.4703C20.4683 20.3326 21.0943 21.5216 21.2534 22.8134C21.2905 23.1553 21.4582 23.4696 21.7216 23.6908C21.985 23.9119 22.3236 24.0227 22.6667 24.0001H22.8134C23.1629 23.9599 23.4824 23.7831 23.7022 23.5084C23.9219 23.2337 24.0242 22.8832 23.9867 22.5334C23.842 21.2369 23.3793 19.9961 22.6396 18.9215C21.8999 17.8468 20.9062 16.9715 19.7467 16.3734ZM16.0001 15.4134C15.5307 15.4134 15.0718 15.2742 14.6815 15.0134C14.2912 14.7527 13.987 14.382 13.8074 13.9483C13.6278 13.5146 13.5808 13.0374 13.6724 12.5771C13.7639 12.1167 13.99 11.6938 14.3219 11.3619C14.6538 11.03 15.0767 10.8039 15.5371 10.7124C15.9974 10.6208 16.4746 10.6678 16.9083 10.8474C17.342 11.027 17.7127 11.3312 17.9734 11.7215C18.2342 12.1118 18.3734 12.5707 18.3734 13.0401C18.3734 13.6695 18.1234 14.2732 17.6783 14.7183C17.2332 15.1634 16.6295 15.4134 16.0001 15.4134ZM25.3334 2.66675H6.66675C5.60588 2.66675 4.58847 3.08818 3.83832 3.83832C3.08818 4.58847 2.66675 5.60588 2.66675 6.66675V25.3334C2.66675 26.3943 3.08818 27.4117 3.83832 28.1618C4.58847 28.912 5.60588 29.3334 6.66675 29.3334H25.3334C26.3943 29.3334 27.4117 28.912 28.1618 28.1618C28.912 27.4117 29.3334 26.3943 29.3334 25.3334V6.66675C29.3334 5.60588 28.912 4.58847 28.1618 3.83832C27.4117 3.08818 26.3943 2.66675 25.3334 2.66675ZM26.6667 25.3334C26.6667 25.687 26.5263 26.0262 26.2762 26.2762C26.0262 26.5263 25.687 26.6667 25.3334 26.6667H6.66675C6.31313 26.6667 5.97399 26.5263 5.72394 26.2762C5.47389 26.0262 5.33341 25.687 5.33341 25.3334V6.66675C5.33341 6.31313 5.47389 5.97399 5.72394 5.72394C5.97399 5.47389 6.31313 5.33341 6.66675 5.33341H25.3334C25.687 5.33341 26.0262 5.47389 26.2762 5.72394C26.5263 5.97399 26.6667 6.31313 26.6667 6.66675V25.3334Z" fill="#5B5B5B"/>
</svg>
