<svg width="20" height="20" viewBox="0 0 20 20" fill="none" xmlns="http://www.w3.org/2000/svg">
    <path d="M18.9743 14.7843L16.9043 12.6643C16.459 12.241 15.8974 11.9606 15.2915 11.859C14.6856 11.7575 14.0632 11.8394 13.5043 12.0943L12.6043 11.1943C13.6648 9.7772 14.1492 8.01096 13.9598 6.25112C13.7705 4.49128 12.9215 2.86851 11.5837 1.70949C10.246 0.550462 8.51882 -0.0587559 6.74995 0.00447161C4.98108 0.0676992 3.30184 0.798677 2.05026 2.05026C0.798678 3.30184 0.0676992 4.98108 0.00447161 6.74995C-0.0587559 8.51882 0.550462 10.246 1.70949 11.5837C2.86851 12.9215 4.49128 13.7705 6.25112 13.9598C8.01097 14.1492 9.7772 13.6648 11.1943 12.6043L12.0843 13.4943C11.7994 14.0539 11.6973 14.6889 11.7924 15.3096C11.8874 15.9303 12.1749 16.5056 12.6143 16.9543L14.7343 19.0743C15.2968 19.6361 16.0593 19.9516 16.8543 19.9516C17.6493 19.9516 18.4118 19.6361 18.9743 19.0743C19.26 18.7949 19.4871 18.4612 19.6421 18.0929C19.7971 17.7245 19.8769 17.3289 19.8769 16.9293C19.8769 16.5297 19.7971 16.134 19.6421 15.7657C19.4871 15.3973 19.26 15.0637 18.9743 14.7843ZM10.4943 10.5443C9.79452 11.2423 8.90359 11.7172 7.93403 11.9091C6.96447 12.101 5.95978 12.0013 5.04689 11.6225C4.13399 11.2437 3.35385 10.6028 2.805 9.78082C2.25615 8.95885 1.96323 7.99266 1.96323 7.00429C1.96323 6.01592 2.25615 5.04972 2.805 4.22775C3.35385 3.40578 4.13399 2.76491 5.04689 2.3861C5.95978 2.00729 6.96447 1.90754 7.93403 2.09944C8.90359 2.29134 9.79452 2.76629 10.4943 3.46429C10.9599 3.92874 11.3293 4.4805 11.5814 5.08795C11.8335 5.6954 11.9632 6.34661 11.9632 7.00429C11.9632 7.66196 11.8335 8.31317 11.5814 8.92062C11.3293 9.52808 10.9599 10.0798 10.4943 10.5443ZM17.5643 17.6143C17.4713 17.708 17.3607 17.7824 17.2389 17.8332C17.117 17.8839 16.9863 17.9101 16.8543 17.9101C16.7223 17.9101 16.5916 17.8839 16.4697 17.8332C16.3479 17.7824 16.2372 17.708 16.1443 17.6143L14.0243 15.4943C13.9306 15.4013 13.8562 15.2907 13.8054 15.1689C13.7546 15.047 13.7285 14.9163 13.7285 14.7843C13.7285 14.6523 13.7546 14.5216 13.8054 14.3997C13.8562 14.2779 13.9306 14.1673 14.0243 14.0743C14.1173 13.9806 14.2279 13.9062 14.3497 13.8554C14.4716 13.8046 14.6023 13.7785 14.7343 13.7785C14.8663 13.7785 14.997 13.8046 15.1189 13.8554C15.2407 13.9062 15.3513 13.9806 15.4443 14.0743L17.5643 16.1943C17.658 16.2872 17.7324 16.3979 17.7832 16.5197C17.8339 16.6416 17.8601 16.7723 17.8601 16.9043C17.8601 17.0363 17.8339 17.167 17.7832 17.2889C17.7324 17.4107 17.658 17.5213 17.5643 17.6143Z" fill="#979797" />
</svg>
